<?xml version="1.0" standalone="no"?><!DOCTYPE svg PUBLIC "-//W3C//DTD SVG 1.1//EN" "http://www.w3.org/Graphics/SVG/1.1/DTD/svg11.dtd"><svg class="icon" width="200px" height="200.00px" viewBox="0 0 1024 1024" version="1.1" xmlns="http://www.w3.org/2000/svg"><path d="M768 809.984l0-59.989333q0-57.984-88.021333-95.018667t-168.021333-36.992-168.021333 36.992-88.021333 95.018667l0 59.989333 512 0zM512 297.984q-52.010667 0-89.984 38.016t-38.016 89.984 38.016 89.984 89.984 38.016 89.984-38.016 38.016-89.984-38.016-89.984-89.984-38.016zM512 128q-18.005333 0-29.994667 11.989333t-11.989333 29.994667 11.989333 31.018667 29.994667 13.013333 29.994667-13.013333 11.989333-31.018667-11.989333-29.994667-29.994667-11.989333zM809.984 128q34.005333 0 59.989333 25.984t25.984 59.989333l0 596.010667q0 34.005333-25.984 59.989333t-59.989333 25.984l-596.010667 0q-34.005333 0-59.989333-25.984t-25.984-59.989333l0-596.010667q0-34.005333 25.984-59.989333t59.989333-25.984l178.005333 0q13.994667-38.016 45.994667-61.994667t73.984-24.021333 73.984 24.021333 45.994667 61.994667l178.005333 0z" fill="#1296db" /></svg>