<?xml version="1.0" standalone="no"?><!DOCTYPE svg PUBLIC "-//W3C//DTD SVG 1.1//EN" "http://www.w3.org/Graphics/SVG/1.1/DTD/svg11.dtd"><svg class="icon" width="200px" height="200.00px" viewBox="0 0 1024 1024" version="1.1" xmlns="http://www.w3.org/2000/svg"><path d="M512 0C230.6 0 0 230.6 0 512s230.6 512 512 512 512-230.6 512-512S793.4 0 512 0z" fill="#4DA6FF" /><path d="M1024 512c0 281.4-230.6 512-512 512V0c281.4 0 512 230.6 512 512z" fill="#4596E6" /><path d="M519.288 715.84c0.954-14.1 11.974-24.558 25.878-27.094 39.612-7.222 75.058-27.18 101.572-57.332l23.964-27.216-30.32-17.874a15.312 15.312 0 0 1 0.974-26.91l128.076-63.524c19.17-9.508 41.846 3.536 43.264 24.888l9.486 142.922a15.31 15.31 0 0 1-22.884 14.306l-26.702-15.272-15.674 22.12c-48.952 69.13-124.424 114.05-206.922 124.702-19.188 2.478-36.188-12.484-34.892-31.788 1.326-19.76 2.976-44.138 4.18-61.928zM684.7 403.864c-12.49 6.204-26.898 1.978-35.934-8.644-25.942-30.496-61.62-51.784-100.876-59.646L512 328.368v35.066a15.312 15.312 0 0 1-23.79 12.752l-119.096-79.158c-17.822-11.846-18.056-37.882-0.274-49.788a119005.006 119005.006 0 0 1 119.284-79.658 15.312 15.312 0 0 1 15.702-0.774 15.306 15.306 0 0 1 8.112 13.468l0.06 30.17 27.128 2.608c84.1 8.138 160.716 51.098 211.246 117.032 11.748 15.33 7.326 37.516-9.972 46.108l-55.7 27.67zM397.314 743.142c-1.36 21.366-23.88 34.54-43.078 25.066-38.594-19.044-95.712-47.266-128.536-63.486a15.312 15.312 0 0 1-0.852-27.004l26.262-15.072-11.542-24.932C221.55 598.69 212 555.212 212 512c0-39.794 8.018-79.214 23.392-115.782 7.46-17.746 28.892-24.842 44.902-14.156l51.636 34.46c11.498 7.674 15.008 22.124 10.412 35.162-13.202 37.458-13.756 79.058-1.086 117.242l11.572 34.864 30.656-17.598a15.312 15.312 0 0 1 22.906 14.252l-9.076 142.698z" fill="#E0E4EC" /></svg>